#Comment line ignore any data following # character 
#Hierarchical Translation and Rotation (.htr) file 
[Header]	
#Header keywords are followed by a single value 
FileType HTR		#Single word string
DataType HTRS		#Translation followed by rotation and scale data
FileVersion 1		#integer
NumSegments 84		#integer
NumFrames 2		#integer
DataFrameRate 30		#integer, data frame rate in this file
EulerRotationOrder ZYX
CalibrationUnits mm
RotationUnits Degrees
GlobalAxisofGravity Y
BoneLengthAxis Y
ScaleFactor 1.00
[SegmentNames&Hierarchy]
#CHILD	PARENT
MASTER GLOBAL
root MASTER
chest root
L_mid_tent01 root
R_mid_tent01 root
spine01 root
Bip01_Neck chest
L_humerus chest
R_humerus chest
weapon_bone chest
Bip01_Head Bip01_Neck
eye_left_bone Bip01_Head
eye_right_bone Bip01_Head
L_forearm L_humerus
L_front_hand L_forearm
L_weapon_bone L_forearm
L_front_hand01_01 L_front_hand
L_front_hand02_01 L_front_hand
L_front_hand03_01 L_front_hand
L_front_hand01_02 L_front_hand01_01
L_front_hand02_02 L_front_hand02_01
L_front_hand03_02 L_front_hand03_01
R_forearm R_humerus
R_front_hand R_forearm
R_weapon_bone R_forearm
R_front_hand01_01 R_front_hand
R_front_hand02_01 R_front_hand
R_front_hand03_01 R_front_hand
R_front_hand01_02 R_front_hand01_01
R_front_hand02_02 R_front_hand02_01
R_front_hand03_02 R_front_hand03_01
null_rope01_connect L_mid_tent01
Rope1_Seg01 null_rope01_connect
Rope1_Seg02 Rope1_Seg01
Rope1_Seg03 Rope1_Seg02
Rope1_Seg04 Rope1_Seg03
Rope1_Seg05 Rope1_Seg04
Rope1_Seg06 Rope1_Seg05
Rope1_Seg07 Rope1_Seg06
Rope1_Seg09 Rope1_Seg07
L_mid_hand01 Rope1_Seg09
L_mid_hand02 Rope1_Seg09
L_mid_hand03 Rope1_Seg09
null_rope02_connect R_mid_tent01
Rope2_Seg01 null_rope02_connect
Rope2_Seg02 Rope2_Seg01
Rope2_Seg03 Rope2_Seg02
Rope2_Seg04 Rope2_Seg03
Rope2_Seg05 Rope2_Seg04
Rope2_Seg06 Rope2_Seg05
Rope2_Seg07 Rope2_Seg06
Rope2_Seg09 Rope2_Seg07
R_mid_hand01 Rope2_Seg09
R_mid_hand02 Rope2_Seg09
R_mid_hand03 Rope2_Seg09
spine02 spine01
spine03 spine02
pelvis spine03
null_rope03_connect pelvis
null_rope04_connect pelvis
Rope3_Seg01 null_rope03_connect
Rope3_Seg02 Rope3_Seg01
Rope3_Seg03 Rope3_Seg02
Rope3_Seg04 Rope3_Seg03
Rope3_Seg05 Rope3_Seg04
Rope3_Seg06 Rope3_Seg05
Rope3_Seg07 Rope3_Seg06
Rope3_Seg08 Rope3_Seg07
Rope3_Seg09 Rope3_Seg08
R_rear_hand01 Rope3_Seg09
R_rear_hand02 Rope3_Seg09
R_rear_hand03 Rope3_Seg09
Rope4_Seg01 null_rope04_connect
Rope4_Seg02 Rope4_Seg01
Rope4_Seg03 Rope4_Seg02
Rope4_Seg04 Rope4_Seg03
Rope4_Seg05 Rope4_Seg04
Rope4_Seg06 Rope4_Seg05
Rope4_Seg07 Rope4_Seg06
Rope4_Seg08 Rope4_Seg07
Rope4_Seg09 Rope4_Seg08
L_rear_hand01 Rope4_Seg09
L_rear_hand02 Rope4_Seg09
L_rear_hand03 Rope4_Seg09
[BasePosition]
#SegmentName Tx, Ty, Tz, Rx, Ry, Rz, BoneLength
MASTER 0.000000 0.000000 0.000000 -90.000000 0.000000 0.000000 10.000000 
root 0.000000 0.000000 0.000000 0.000000 0.000000 0.000000 10.000000 
chest 0.000000 0.000000 0.000000 0.000000 0.000000 0.000000 10.000000 
L_mid_tent01 0.000000 0.000000 0.000000 0.000000 0.000000 0.000000 10.000000 
R_mid_tent01 0.000000 0.000000 0.000000 0.000000 0.000000 0.000000 10.000000 
spine01 0.000000 0.000000 0.000000 0.000000 0.000000 0.000000 10.000000 
Bip01_Neck 0.000000 0.000000 0.000000 0.000000 0.000000 0.000000 10.000000 
L_humerus 0.000000 0.000000 0.000000 0.000000 0.000000 0.000000 10.000000 
R_humerus 0.000000 0.000000 0.000000 0.000000 0.000000 0.000000 10.000000 
weapon_bone 0.000000 0.000000 0.000000 0.000000 0.000000 0.000000 10.000000 
Bip01_Head 0.000000 0.000000 0.000000 0.000000 0.000000 0.000000 10.000000 
eye_left_bone 0.000000 0.000000 0.000000 0.000000 0.000000 0.000000 10.000000 
eye_right_bone 0.000000 0.000000 0.000000 0.000000 0.000000 0.000000 10.000000 
L_forearm 0.000000 0.000000 0.000000 0.000000 0.000000 0.000000 10.000000 
L_front_hand 0.000000 0.000000 0.000000 0.000000 0.000000 0.000000 10.000000 
L_weapon_bone 0.000000 0.000000 0.000000 0.000000 0.000000 0.000000 10.000000 
L_front_hand01_01 0.000000 0.000000 0.000000 0.000000 0.000000 0.000000 10.000000 
L_front_hand02_01 0.000000 0.000000 0.000000 0.000000 0.000000 0.000000 10.000000 
L_front_hand03_01 0.000000 0.000000 0.000000 0.000000 0.000000 0.000000 10.000000 
L_front_hand01_02 0.000000 0.000000 0.000000 0.000000 0.000000 0.000000 10.000000 
L_front_hand02_02 0.000000 0.000000 0.000000 0.000000 0.000000 0.000000 10.000000 
L_front_hand03_02 0.000000 0.000000 0.000000 0.000000 0.000000 0.000000 10.000000 
R_forearm 0.000000 0.000000 0.000000 0.000000 0.000000 0.000000 10.000000 
R_front_hand 0.000000 0.000000 0.000000 0.000000 0.000000 0.000000 10.000000 
R_weapon_bone 0.000000 0.000000 0.000000 0.000000 0.000000 0.000000 10.000000 
R_front_hand01_01 0.000000 0.000000 0.000000 0.000000 0.000000 0.000000 10.000000 
R_front_hand02_01 0.000000 0.000000 0.000000 0.000000 0.000000 0.000000 10.000000 
R_front_hand03_01 0.000000 0.000000 0.000000 0.000000 0.000000 0.000000 10.000000 
R_front_hand01_02 0.000000 0.000000 0.000000 0.000000 0.000000 0.000000 10.000000 
R_front_hand02_02 0.000000 0.000000 0.000000 0.000000 0.000000 0.000000 10.000000 
R_front_hand03_02 0.000000 0.000000 0.000000 0.000000 0.000000 0.000000 10.000000 
null_rope01_connect 0.000000 0.000000 0.000000 0.000000 0.000000 0.000000 10.000000 
Rope1_Seg01 0.000000 0.000000 0.000000 0.000000 0.000000 0.000000 10.000000 
Rope1_Seg02 0.000000 0.000000 0.000000 0.000000 0.000000 0.000000 10.000000 
Rope1_Seg03 0.000000 0.000000 0.000000 0.000000 0.000000 0.000000 10.000000 
Rope1_Seg04 0.000000 0.000000 0.000000 0.000000 0.000000 0.000000 10.000000 
Rope1_Seg05 0.000000 0.000000 0.000000 0.000000 0.000000 0.000000 10.000000 
Rope1_Seg06 0.000000 0.000000 0.000000 0.000000 0.000000 0.000000 10.000000 
Rope1_Seg07 0.000000 0.000000 0.000000 0.000000 0.000000 0.000000 10.000000 
Rope1_Seg09 0.000000 0.000000 0.000000 0.000000 0.000000 0.000000 10.000000 
L_mid_hand01 0.000000 0.000000 0.000000 0.000000 0.000000 0.000000 10.000000 
L_mid_hand02 0.000000 0.000000 0.000000 0.000000 0.000000 0.000000 10.000000 
L_mid_hand03 0.000000 0.000000 0.000000 0.000000 0.000000 0.000000 10.000000 
null_rope02_connect 0.000000 0.000000 0.000000 0.000000 0.000000 0.000000 10.000000 
Rope2_Seg01 0.000000 0.000000 0.000000 0.000000 0.000000 0.000000 10.000000 
Rope2_Seg02 0.000000 0.000000 0.000000 0.000000 0.000000 0.000000 10.000000 
Rope2_Seg03 0.000000 0.000000 0.000000 0.000000 0.000000 0.000000 10.000000 
Rope2_Seg04 0.000000 0.000000 0.000000 0.000000 0.000000 0.000000 10.000000 
Rope2_Seg05 0.000000 0.000000 0.000000 0.000000 0.000000 0.000000 10.000000 
Rope2_Seg06 0.000000 0.000000 0.000000 0.000000 0.000000 0.000000 10.000000 
Rope2_Seg07 0.000000 0.000000 0.000000 0.000000 0.000000 0.000000 10.000000 
Rope2_Seg09 0.000000 0.000000 0.000000 0.000000 0.000000 0.000000 10.000000 
R_mid_hand01 0.000000 0.000000 0.000000 0.000000 0.000000 0.000000 10.000000 
R_mid_hand02 0.000000 0.000000 0.000000 0.000000 0.000000 0.000000 10.000000 
R_mid_hand03 0.000000 0.000000 0.000000 0.000000 0.000000 0.000000 10.000000 
spine02 0.000000 0.000000 0.000000 0.000000 0.000000 0.000000 10.000000 
spine03 0.000000 0.000000 0.000000 0.000000 0.000000 0.000000 10.000000 
pelvis 0.000000 0.000000 0.000000 0.000000 0.000000 0.000000 10.000000 
null_rope03_connect 0.000000 0.000000 0.000000 0.000000 0.000000 0.000000 10.000000 
null_rope04_connect 0.000000 0.000000 0.000000 0.000000 0.000000 0.000000 10.000000 
Rope3_Seg01 0.000000 0.000000 0.000000 0.000000 0.000000 0.000000 10.000000 
Rope3_Seg02 0.000000 0.000000 0.000000 0.000000 0.000000 0.000000 10.000000 
Rope3_Seg03 0.000000 0.000000 0.000000 0.000000 0.000000 0.000000 10.000000 
Rope3_Seg04 0.000000 0.000000 0.000000 0.000000 0.000000 0.000000 10.000000 
Rope3_Seg05 0.000000 0.000000 0.000000 0.000000 0.000000 0.000000 10.000000 
Rope3_Seg06 0.000000 0.000000 0.000000 0.000000 0.000000 0.000000 10.000000 
Rope3_Seg07 0.000000 0.000000 0.000000 0.000000 0.000000 0.000000 10.000000 
Rope3_Seg08 0.000000 0.000000 0.000000 0.000000 0.000000 0.000000 10.000000 
Rope3_Seg09 0.000000 0.000000 0.000000 0.000000 0.000000 0.000000 10.000000 
R_rear_hand01 0.000000 0.000000 0.000000 0.000000 0.000000 0.000000 10.000000 
R_rear_hand02 0.000000 0.000000 0.000000 0.000000 0.000000 0.000000 10.000000 
R_rear_hand03 0.000000 0.000000 0.000000 0.000000 0.000000 0.000000 10.000000 
Rope4_Seg01 0.000000 0.000000 0.000000 0.000000 0.000000 0.000000 10.000000 
Rope4_Seg02 0.000000 0.000000 0.000000 0.000000 0.000000 0.000000 10.000000 
Rope4_Seg03 0.000000 0.000000 0.000000 0.000000 0.000000 0.000000 10.000000 
Rope4_Seg04 0.000000 0.000000 0.000000 0.000000 0.000000 0.000000 10.000000 
Rope4_Seg05 0.000000 0.000000 0.000000 0.000000 0.000000 0.000000 10.000000 
Rope4_Seg06 0.000000 0.000000 0.000000 0.000000 0.000000 0.000000 10.000000 
Rope4_Seg07 0.000000 0.000000 0.000000 0.000000 0.000000 0.000000 10.000000 
Rope4_Seg08 0.000000 0.000000 0.000000 0.000000 0.000000 0.000000 10.000000 
Rope4_Seg09 0.000000 0.000000 0.000000 0.000000 0.000000 0.000000 10.000000 
L_rear_hand01 0.000000 0.000000 0.000000 0.000000 0.000000 0.000000 10.000000 
L_rear_hand02 0.000000 0.000000 0.000000 0.000000 0.000000 0.000000 10.000000 
L_rear_hand03 0.000000 0.000000 0.000000 0.000000 0.000000 0.000000 10.000000 
#Beginning of Data. Separated by tabs
#Fr	Tx	Ty	Tz	Rx	Ry	Rz	SF
[MASTER]
19 0.000000 0.000000 0.000000 0.001660 0.001660 0.001660 0.000000
20 0.000000 0.000000 0.000000 0.001660 0.001660 0.001660 0.000000
[root]
19 -32.467350 -55.683754 1501.957642 -89.903839 -40.224773 -86.988525 1503.340210
20 -31.604532 -55.951744 1501.851807 -84.258385 -41.418587 -86.696541 1503.225952
[chest]
19 -84.512650 -34.090519 0.000000 -6.158789 0.649724 -177.010040 91.129311
20 -84.512650 -34.090519 0.000000 -5.480972 -1.440447 -174.225952 91.129311
[L_mid_tent01]
19 27.299168 22.179106 -249.918716 2.733574 15.090160 79.757774 252.381699
20 27.299171 22.179106 -249.918716 2.834574 17.806971 79.927383 252.381699
[R_mid_tent01]
19 23.228794 24.509907 226.238495 165.261353 -24.558708 78.833519 228.744751
20 23.228794 24.509907 226.238495 164.768982 -28.592234 80.150635 228.744751
[spine01]
19 -0.361383 -0.195265 0.000000 0.002062 0.001122 32.879829 0.410763
20 -0.361383 -0.195265 0.000000 0.002062 0.001122 32.879829 0.410763
[Bip01_Neck]
19 165.484543 71.581718 0.000119 176.643677 -1.657967 43.431911 180.302734
20 165.484543 71.581718 0.000119 176.643677 -1.657967 43.431911 180.302734
[L_humerus]
19 -13.983130 -135.272980 -120.471481 166.700470 51.707249 -88.800880 181.680161
20 -13.983130 -135.272980 -120.471481 165.294479 58.738857 -94.956093 181.680161
[R_humerus]
19 -13.983309 -135.273102 125.287651 -167.903656 -30.030935 -103.490273 184.909012
20 -13.983309 -135.273102 125.287651 -167.811081 -41.633701 -101.483505 184.909012
[weapon_bone]
19 235.964890 -300.705902 0.000000 0.000000 -89.951546 -128.212341 382.234833
20 235.964890 -300.705902 0.000000 0.000000 -89.951546 -128.212341 382.234833
[Bip01_Head]
19 213.444290 185.715591 11.776940 11.647943 3.145146 -43.894005 283.173889
20 213.444290 185.715591 11.776940 8.646482 3.170766 -43.894154 283.173889
[eye_left_bone]
19 -24.626970 125.451866 -64.772606 0.000000 -90.000000 -99.840431 143.318359
20 -24.626970 125.451866 -64.772606 0.000000 -90.000000 -99.840431 143.318359
[eye_right_bone]
19 -24.626970 125.451866 64.327362 0.000000 -89.965736 80.156380 143.117676
20 -24.626970 125.451866 64.327362 0.000000 -89.965736 80.156380 143.117676
[L_forearm]
19 322.776093 0.000000 -0.000119 0.000396 -0.002314 -109.419975 322.776093
20 322.776093 0.000000 -0.000119 0.000396 -0.002314 -109.419975 322.776093
[L_front_hand]
19 241.149185 -0.042021 -3.300071 -178.667953 -1.835447 -27.422350 241.171753
20 241.149185 -0.042021 -3.300071 -178.667953 -1.835447 -27.422350 241.171753
[L_weapon_bone]
19 156.183838 0.000000 0.000000 0.000014 0.000007 0.000001 156.183838
20 156.183838 0.000000 0.000000 0.000014 0.000007 0.000001 156.183838
[L_front_hand01_01]
19 86.095154 20.947098 -0.655860 -0.298084 -0.518635 67.679581 88.609184
20 86.095154 20.947098 -0.655860 -0.305248 -0.514079 68.359749 88.609184
[L_front_hand02_01]
19 86.935165 -11.437475 24.513514 143.833725 -55.908611 -48.913986 91.046425
20 86.935165 -11.437475 24.513514 144.655014 -56.309925 -49.905918 91.046425
[L_front_hand03_01]
19 86.637497 -14.123976 -20.424902 -144.057907 54.129478 -50.849678 90.126129
20 86.637497 -14.123976 -20.424902 -144.832809 54.526951 -51.801987 90.126129
[L_front_hand01_02]
19 71.020905 -0.000179 0.000030 0.000316 -0.002326 -105.487549 71.020905
20 71.020905 -0.000179 0.000030 0.000317 -0.002326 -105.529480 71.020905
[L_front_hand02_02]
19 71.020927 -0.000119 0.000060 0.000316 -0.002326 -105.487549 71.020927
20 71.020927 -0.000119 0.000060 0.000317 -0.002326 -105.529480 71.020927
[L_front_hand03_02]
19 71.020905 -0.000060 0.000060 0.000316 -0.002326 -105.487549 71.020905
20 71.020905 -0.000060 0.000060 0.000317 -0.002326 -105.529480 71.020905
[R_forearm]
19 322.776428 -0.000060 0.000030 0.202103 0.065158 -108.062820 322.776428
20 322.776428 -0.000060 0.000030 0.202103 0.065158 -108.062820 322.776428
[R_front_hand]
19 238.847015 -0.006795 2.210259 -2.635298 -10.645461 -26.312506 238.857239
20 238.847015 -0.006795 2.210259 -2.635298 -10.645461 -26.312506 238.857239
[R_weapon_bone]
19 155.664093 0.002503 -0.000030 0.003487 0.001180 -90.988930 155.664078
20 155.664093 0.002503 -0.000030 0.003487 0.001180 -90.988930 155.664078
[R_front_hand01_01]
19 87.624611 14.231146 22.918642 -144.529846 -56.246773 49.862968 91.683487
20 87.624611 14.231146 22.918642 -146.722275 -57.229923 52.479809 91.683487
[R_front_hand02_01]
19 89.356956 14.367283 -19.491137 145.090088 54.636814 52.351852 92.579636
20 89.356956 14.367283 -19.491137 147.162369 55.605301 54.878815 92.579636
[R_front_hand03_01]
19 87.286232 -22.307278 -0.143439 0.104902 -0.441124 -68.497856 90.091743
20 87.286232 -22.307278 -0.143439 0.122539 -0.437831 -70.242157 90.091743
[R_front_hand01_02]
19 71.020905 0.000060 0.000119 0.002323 -0.000334 106.381714 71.020905
20 71.020905 0.000060 0.000119 0.002323 -0.000334 106.381714 71.020905
[R_front_hand02_02]
19 71.020844 -0.000030 -0.000119 0.002323 -0.000334 106.381714 71.020836
20 71.020844 -0.000030 -0.000119 0.002323 -0.000334 106.381714 71.020836
[R_front_hand03_02]
19 71.020905 0.000000 0.000030 0.002323 -0.000334 106.381714 71.020905
20 71.020905 0.000000 0.000030 0.002323 -0.000334 106.381714 71.020905
[null_rope01_connect]
19 328.732483 0.000000 -0.000238 -125.492828 -77.306129 176.512741 328.732483
20 328.732483 0.000000 -0.000238 -117.879341 -80.273911 169.648285 328.732483
[Rope1_Seg01]
19 -0.000025 0.000013 0.000051 90.796928 19.152079 -125.507393 0.000058
20 -0.000025 0.000011 0.000045 102.713409 14.300992 -136.685623 0.000053
[Rope1_Seg02]
19 139.999863 -0.000179 0.000000 124.655846 2.064503 -17.377108 139.999863
20 139.999863 -0.000179 0.000000 65.859116 -5.339124 -19.773830 139.999863
[Rope1_Seg03]
19 139.999924 0.000060 -0.000060 7.998134 -29.041620 18.769604 139.999924
20 139.999924 0.000060 -0.000060 39.077782 -38.391758 -6.728635 139.999924
[Rope1_Seg04]
19 139.999924 -0.000060 -0.000119 8.953275 -30.938387 5.873619 139.999924
20 139.999924 -0.000060 -0.000119 1.769143 -33.992607 14.884192 139.999924
[Rope1_Seg05]
19 139.999832 0.000119 -0.000060 0.259379 -17.875359 7.059627 139.999832
20 139.999832 0.000119 -0.000060 -3.479176 -22.636312 11.629344 139.999832
[Rope1_Seg06]
19 139.999954 0.000119 -0.000060 -0.174245 -4.913474 2.137866 139.999954
20 139.999954 0.000119 -0.000060 -1.839360 -8.414485 4.045977 139.999954
[Rope1_Seg07]
19 139.999985 0.000060 0.000000 0.006605 0.001660 0.001660 139.999985
20 139.999985 0.000060 0.000000 -0.368609 -1.539277 0.684242 139.999985
[Rope1_Seg09]
19 121.602913 0.000119 -0.000089 -89.793175 -1.359789 0.847147 121.602913
20 121.602913 0.000119 -0.000089 -89.793175 -1.359789 0.847147 121.602913
[L_mid_hand01]
19 103.859421 1.038730 8.195221 130.544373 -67.584534 -38.866943 104.187431
20 103.859421 1.038730 8.195221 130.544373 -67.584534 -38.866947 104.187431
[L_mid_hand02]
19 105.572853 -4.139662 -10.864139 -168.923172 43.409309 -73.498886 106.211075
20 105.572853 -4.139662 -10.864139 -168.923172 43.409317 -73.498894 106.211075
[L_mid_hand03]
19 104.641464 17.579376 -3.913581 -6.012627 17.808178 74.893677 106.179977
20 104.641464 17.579376 -3.913581 -6.012627 17.808174 74.893669 106.179977
[null_rope02_connect]
19 328.732849 0.000179 -0.000119 -95.837761 58.530693 29.616322 328.732849
20 328.732849 0.000179 -0.000119 -103.156792 50.100544 20.880629 328.732849
[Rope2_Seg01]
19 -0.000076 0.000097 0.000000 -99.191078 40.479797 -14.314493 0.000123
20 -0.000085 0.000096 0.000000 -78.821709 32.132042 -5.985054 0.000128
[Rope2_Seg02]
19 139.999741 -0.000060 -0.000119 -10.711855 1.343627 7.506771 139.999756
20 139.999741 -0.000060 -0.000119 -9.779053 2.693467 6.696788 139.999756
[Rope2_Seg03]
19 140.000107 0.000030 0.000000 -15.484160 -0.286271 14.865861 140.000107
20 140.000107 0.000030 0.000000 -15.682072 2.800853 13.261293 140.000107
[Rope2_Seg04]
19 139.999802 0.000000 -0.000060 -17.171780 -10.298960 31.143847 139.999802
20 139.999802 0.000000 -0.000060 -20.432369 -2.813724 30.618027 139.999802
[Rope2_Seg05]
19 139.999985 -0.000060 0.000119 -5.692126 -6.276391 24.353703 139.999985
20 139.999985 -0.000060 0.000119 -8.652143 -9.260919 26.579208 139.999985
[Rope2_Seg06]
19 139.999893 -0.000030 -0.000119 -0.323337 -3.272279 17.895239 139.999893
20 139.999893 -0.000030 -0.000119 -1.350779 -6.197893 17.889099 139.999893
[Rope2_Seg07]
19 139.999893 0.000060 -0.000060 1.181355 -3.114376 11.059976 139.999893
20 139.999893 0.000060 -0.000060 1.051810 -5.310178 12.534427 139.999893
[Rope2_Seg09]
19 121.338966 0.000089 -0.000060 33.793236 -1.359788 -0.847141 121.338966
20 121.338966 0.000089 -0.000060 33.793236 -1.359788 -0.847141 121.338966
[R_mid_hand01]
19 104.680779 11.144459 -10.335981 -16.212063 45.237247 70.462852 105.778534
20 104.680779 11.144459 -10.335981 -16.212055 45.237240 70.462852 105.778534
[R_mid_hand02]
19 104.070427 2.443552 8.231699 49.067368 -67.749771 39.286453 104.424065
20 104.070427 2.443552 8.231699 49.067371 -67.749794 39.286461 104.424065
[R_mid_hand03]
19 106.028137 -11.221827 -5.996406 -177.101105 15.551026 -76.585571 106.788818
20 106.028137 -11.221827 -5.996406 -177.101105 15.551026 -76.585571 106.788818
[spine02]
19 129.756927 0.001550 0.000119 0.360061 -4.044797 -12.915058 129.756927
20 129.756927 0.001550 0.000119 0.360061 -4.044797 -12.915058 129.756927
[spine03]
19 78.614067 0.081635 -4.899012 1.896495 3.831288 16.473045 78.766602
20 78.614067 0.081635 -4.899013 1.896495 3.831288 16.473045 78.766602
[pelvis]
19 169.435242 0.051022 0.000000 -0.060465 -0.180225 14.087930 169.435257
20 169.435242 0.051022 0.000000 -0.060465 -0.180225 14.087930 169.435257
[null_rope03_connect]
19 -1.257226 -2.466202 137.391083 72.082764 -86.341736 7.592909 137.418976
20 -1.257226 -2.466202 137.391083 54.507763 -80.760216 26.216211 137.418976
[null_rope04_connect]
19 -1.259640 -2.480268 -137.844437 72.082764 -86.341736 7.592909 137.872513
20 -1.259640 -2.480268 -137.844437 54.507763 -80.760216 26.216211 137.872513
[Rope3_Seg01]
19 0.000010 0.000013 -0.000051 -136.725372 -38.818867 -73.255043 0.000053
20 0.000010 0.000011 -0.000045 -148.019318 -54.716217 -64.388885 0.000048
[Rope3_Seg02]
19 139.999924 -0.000119 0.000060 4.575488 -21.300369 9.231389 139.999924
20 139.999924 -0.000119 0.000060 10.693289 -25.094458 3.565459 139.999924
[Rope3_Seg03]
19 139.999924 -0.000119 0.000119 2.021387 -6.576207 1.669250 139.999924
20 139.999924 -0.000119 0.000119 3.621543 -6.844398 -0.041483 139.999924
[Rope3_Seg04]
19 139.999924 0.000119 0.000000 3.192581 -10.453694 14.411151 139.999924
20 139.999924 0.000119 0.000000 9.563673 -14.065888 12.235618 139.999924
[Rope3_Seg05]
19 139.999924 -0.000238 0.000060 1.037779 -8.590683 15.906439 139.999924
20 139.999924 -0.000238 0.000060 7.364637 -13.547826 19.976587 139.999924
[Rope3_Seg06]
19 139.999893 -0.000119 -0.000060 0.347401 -3.745625 6.852823 139.999893
20 139.999893 -0.000119 -0.000060 2.568801 -4.763348 9.436895 139.999893
[Rope3_Seg07]
19 139.999771 0.000060 -0.000119 0.279696 -2.395031 4.458939 139.999771
20 139.999771 0.000060 -0.000119 1.433455 -2.571046 5.720690 139.999771
[Rope3_Seg08]
19 139.999985 -0.000060 0.000000 0.334424 -1.421082 2.688431 139.999985
20 139.999985 -0.000060 0.000000 0.950529 -1.396708 3.344089 139.999985
[Rope3_Seg09]
19 90.185997 -0.000179 -0.000060 89.793228 -1.359877 -0.847183 90.185997
20 90.185997 -0.000179 -0.000060 89.793228 -1.359877 -0.847183 90.185997
[R_rear_hand01]
19 103.366196 -6.073594 -10.757982 -177.714203 24.565960 -73.910950 104.101845
20 103.366196 -6.073594 -10.757982 -177.714203 24.565960 -73.910950 104.101845
[R_rear_hand02]
19 100.509819 12.039542 -7.992327 -12.874829 36.868488 72.167213 101.543350
20 100.509819 12.039542 -7.992327 -12.874829 36.868488 72.167213 101.543350
[R_rear_hand03]
19 101.539970 5.215704 5.435467 71.484581 -71.816628 21.513813 101.819031
20 101.539970 5.215704 5.435467 71.484581 -71.816628 21.513813 101.819031
[Rope4_Seg01]
19 0.000010 0.000038 -0.000114 77.963806 -33.003422 -149.271942 0.000121
20 0.000010 0.000038 -0.000114 82.007309 -35.771580 -150.615692 0.000121
[Rope4_Seg02]
19 139.999985 0.000060 0.000119 -16.244255 19.429319 -11.744695 139.999985
20 139.999985 0.000060 0.000119 -15.788269 15.492290 -11.525499 139.999985
[Rope4_Seg03]
19 139.999924 0.000000 -0.000238 -10.956396 36.820183 -11.726820 139.999924
20 139.999924 0.000000 -0.000238 -15.768363 36.113949 -16.407804 139.999924
[Rope4_Seg04]
19 139.999985 0.000000 0.000119 1.904914 26.086237 -3.096420 139.999985
20 139.999985 0.000000 0.000119 0.592901 29.776098 -5.287773 139.999985
[Rope4_Seg05]
19 139.999802 -0.000060 -0.000119 3.122882 9.918282 -2.950718 139.999802
20 139.999802 -0.000060 -0.000119 3.606880 12.598539 -3.832440 139.999802
[Rope4_Seg06]
19 139.999924 0.000000 0.000060 4.497859 7.661551 -4.813046 139.999924
20 139.999924 0.000000 0.000060 6.835217 12.557976 -6.602245 139.999924
[Rope4_Seg07]
19 139.999802 0.000000 0.000000 6.456850 8.191875 -6.298379 139.999802
20 139.999802 0.000000 0.000000 10.604792 12.334932 -8.782823 139.999802
[Rope4_Seg08]
19 139.999924 0.000000 0.000119 3.855399 5.610113 -4.705815 139.999924
20 139.999924 0.000000 0.000119 6.442960 6.303664 -6.235007 139.999924
[Rope4_Seg09]
19 90.185791 0.000060 0.000060 -135.617828 2.228885 0.850567 90.185791
20 90.185791 0.000060 0.000060 -135.617828 2.228885 0.850567 90.185791
[L_rear_hand01]
19 101.696655 -8.392275 -7.654577 -12.874829 -36.868488 107.832764 102.329041
20 101.696655 -8.392275 -7.654577 -12.874829 -36.868488 107.832764 102.329041
[L_rear_hand02]
19 102.726799 -1.568258 5.773216 71.484581 71.816628 158.486160 102.900848
20 102.726799 -1.568258 5.773216 71.484581 71.816628 158.486145 102.900848
[L_rear_hand03]
19 104.552910 9.721220 -10.420293 -177.714203 -24.565960 -106.089035 105.519653
20 104.552910 9.721220 -10.420293 -177.714203 -24.565960 -106.089035 105.519653
